# xmcd
#
# Track frame offsets:
#	150
#	16950
#	40843
#	57923
#	76218
#	97693
#	117590
#	139699
#	157962
#	179317
#	197514
#	213299
#
# Disc length: 3122 seconds
#
# Revision: 0
# Processed by: cddbd v1.5.2PL0 Copyright (c) Steve Scherf et al.
# Submitted via: Jack! The Knife 18 Bulletproof
#
DISCID=910c300c
DTITLE=AA VV - Anni 90
DYEAR=1990
DGENRE=Pop
TTITLE0=Track1
TTITLE1=Track2
TTITLE2=Track3
TTITLE3=Track4
TTITLE4=Track5
TTITLE5=Track6
TTITLE6=Track7
TTITLE7=Track8
TTITLE8=Track9
TTITLE9=Track10
TTITLE10=Track11
TTITLE11=Track12
EXTD=
EXTT0=
EXTT1=
EXTT2=
EXTT3=
EXTT4=
EXTT5=
EXTT6=
EXTT7=
EXTT8=
EXTT9=
EXTT10=
EXTT11=
PLAYORDER=
